<svg width="50" height="50" viewBox="0 0 50 50" fill="none" xmlns="http://www.w3.org/2000/svg">
<path d="M50 25C50 29.9445 48.5338 34.778 45.7867 38.8893C43.0397 43.0005 39.1352 46.2048 34.5671 48.097C29.9989 49.9892 24.9723 50.4843 20.1227 49.5196C15.2732 48.555 10.8186 46.174 7.32233 42.6777C3.82602 39.1814 1.445 34.7268 0.480368 29.8773C-0.484263 25.0277 0.0108209 20.0011 1.90301 15.4329C3.7952 10.8648 6.99952 6.96029 11.1107 4.21326C15.222 1.46622 20.0555 -5.8963e-08 25 0L25 9.52871C21.9401 9.52871 18.9489 10.4361 16.4046 12.1361C13.8604 13.8361 11.8774 16.2524 10.7064 19.0794C9.5354 21.9064 9.22902 25.0172 9.82598 28.0183C10.4229 31.0194 11.8964 33.7762 14.0601 35.9399C16.2238 38.1036 18.9806 39.5771 21.9817 40.174C24.9828 40.771 28.0936 40.4646 30.9206 39.2936C33.7476 38.1226 36.1639 36.1396 37.8639 33.5954C39.5639 31.0511 40.4713 28.0599 40.4713 25H50Z" fill="url(#paint0_linear_20_231)"/>
<defs>
<linearGradient id="paint0_linear_20_231" x1="25" y1="0" x2="25" y2="50" gradientUnits="userSpaceOnUse">
<stop stop-color="#7A00F3" stop-opacity="0.99"/>
<stop offset="0.9999" stop-color="#DF4EF7"/>
<stop offset="1" stop-color="#D9D9D9" stop-opacity="0"/>
</linearGradient>
</defs>
</svg>
