<svg width="21" height="17" viewBox="0 0 21 17" fill="none" xmlns="http://www.w3.org/2000/svg">
<path d="M1 1.78947C1 1.58009 1.10024 1.37929 1.27866 1.23123C1.45709 1.08318 1.69909 1 1.95142 1H7.65992L10.0385 3.36842H18.1255C18.3778 3.36842 18.6198 3.4516 18.7983 3.59965C18.9767 3.74771 19.0769 3.94851 19.0769 4.15789V14.4211C19.0769 14.6304 18.9767 14.8312 18.7983 14.9793C18.6198 15.1273 18.3778 15.2105 18.1255 15.2105H1.95142C1.69909 15.2105 1.45709 15.1273 1.27866 14.9793C1.10024 14.8312 1 14.6304 1 14.4211V1.78947Z" stroke="white" stroke-width="2" stroke-linejoin="round"/>
<path d="M12.8931 8.8896L10.0388 6.52631L7.18457 8.89473M10.0388 6.52631V12.0526" stroke="white" stroke-width="2" stroke-linecap="round" stroke-linejoin="round"/>
</svg>
