<svg width="20" height="19" viewBox="0 0 20 19" fill="none" xmlns="http://www.w3.org/2000/svg">
<path fill-rule="evenodd" clip-rule="evenodd" d="M8.8172 2.2611C12.1298 2.17435 14.8855 4.78941 14.9722 8.10198C15.0589 11.4145 12.4439 14.1702 9.13132 14.257C5.81875 14.3437 3.06306 11.7287 2.97631 8.4161C2.88957 5.10353 5.50462 2.34784 8.8172 2.2611ZM8.76484 0.261781C13.1816 0.146124 16.8559 3.63286 16.9715 8.04962C17.0199 9.8977 16.4376 11.6158 15.4204 12.9976L18.8951 16.295C19.2957 16.6752 19.3123 17.3081 18.9321 17.7087C18.552 18.1093 17.919 18.1259 17.5184 17.7457L14.0437 14.4483C12.717 15.5365 11.0318 16.2079 9.18367 16.2563C4.76691 16.372 1.09266 12.8852 0.977 8.46845C0.861343 4.05169 4.34808 0.377438 8.76484 0.261781Z" fill="#787878"/>
</svg>
