<svg width="14" height="10" viewBox="0 0 14 10" fill="none" xmlns="http://www.w3.org/2000/svg">
<path d="M5.35352 5L5.80073 4.77639L5.51767 4.21028L5.03246 4.61669L5.35352 5ZM6.35352 7L5.9063 7.22361L6.19431 7.79962L6.68098 7.37784L6.35352 7ZM13.8535 0.5L8.18445 1.59317L11.9657 5.95614L13.8535 0.5ZM1.32105 9.02976L5.67457 5.38331L5.03246 4.61669L0.678946 8.26315L1.32105 9.02976ZM4.9063 5.22361L5.9063 7.22361L6.80073 6.77639L5.80073 4.77639L4.9063 5.22361ZM6.68098 7.37784L10.7804 3.82503L10.1254 3.06934L6.02605 6.62216L6.68098 7.37784Z" fill="#4CC900"/>
</svg>
