<svg width="15" height="12" viewBox="0 0 15 12" fill="none" xmlns="http://www.w3.org/2000/svg">
<path d="M5.49976 5.23164L5.1462 5.5852L5.35423 5.79323L5.63711 5.71241L5.49976 5.23164ZM8.99982 4.23165L9.37945 3.90626L9.17078 3.6628L8.86247 3.75089L8.99982 4.23165ZM14.9999 11.2317L13.9377 5.5567L9.55412 9.31406L14.9999 11.2317ZM0.646202 1.0852L5.1462 5.5852L5.85331 4.87809L1.35331 0.37809L0.646202 1.0852ZM5.63711 5.71241L9.13718 4.71242L8.86247 3.75089L5.3624 4.75088L5.63711 5.71241ZM8.6202 4.55705L11.6917 8.14041L12.4509 7.48961L9.37945 3.90626L8.6202 4.55705Z" fill="#FF453A"/>
</svg>
