<svg width="29" height="28" viewBox="0 0 29 28" fill="none" xmlns="http://www.w3.org/2000/svg">
<path d="M13.5424 1.18239C13.828 0.233248 15.172 0.233252 15.4576 1.1824L18.0045 9.64662C18.134 10.077 18.5346 10.3681 18.9839 10.3582L27.8209 10.1649C28.8119 10.1432 29.2272 11.4214 28.4128 11.9863L21.1498 17.0242C20.7806 17.2803 20.6275 17.7513 20.7757 18.1756L23.6904 26.5203C24.0172 27.4561 22.9299 28.246 22.141 27.646L15.1053 22.2954C14.7476 22.0233 14.2524 22.0233 13.8947 22.2954L6.85903 27.646C6.07008 28.246 4.98278 27.4561 5.30962 26.5203L8.22428 18.1756C8.37247 17.7513 8.21943 17.2803 7.85016 17.0242L0.587237 11.9863C-0.2272 11.4214 0.188114 10.1432 1.17906 10.1649L10.0161 10.3582C10.4654 10.3681 10.866 10.077 10.9955 9.64662L13.5424 1.18239Z" fill="white"/>
</svg>
